<svg width="125" height="120" viewBox="0 0 125 120" fill="none" xmlns="http://www.w3.org/2000/svg">
<rect x="75" y="10" width="5" height="5" fill="#52525C"/>
<rect x="80" y="10" width="5" height="5" fill="#52525C"/>
<rect x="85" y="10" width="5" height="5" fill="#52525C"/>
<rect x="90" y="10" width="5" height="5" fill="#52525C"/>
<rect x="95" y="10" width="5" height="5" fill="#52525C"/>
<rect x="100" y="10" width="5" height="5" fill="#52525C"/>
<rect x="105" y="10" width="5" height="5" fill="#52525C"/>
<rect x="110" y="10" width="5" height="5" fill="#52525C"/>
<rect x="70" y="15" width="5" height="5" fill="#52525C"/>
<rect x="75" y="15" width="5" height="5" fill="#52525C"/>
<rect x="80" y="15" width="5" height="5" fill="#52525C"/>
<rect x="85" y="15" width="5" height="5" fill="#52525C"/>
<rect x="90" y="15" width="5" height="5" fill="#52525C"/>
<rect x="95" y="15" width="5" height="5" fill="#52525C"/>
<rect x="100" y="15" width="5" height="5" fill="#52525C"/>
<rect x="105" y="15" width="5" height="5" fill="#52525C"/>
<rect x="110" y="15" width="5" height="5" fill="#52525C"/>
<rect x="65" y="20" width="5" height="5" fill="#5A5A64"/>
<rect x="70" y="20" width="5" height="5" fill="#52525C"/>
<rect x="75" y="20" width="5" height="5" fill="#C0C0C3"/>
<rect x="105" y="20" width="5" height="5" fill="#52525C"/>
<rect x="110" y="20" width="5" height="5" fill="#52525C"/>
<rect x="65" y="25" width="5" height="5" fill="#52525C"/>
<rect x="70" y="25" width="5" height="5" fill="#52525C"/>
<rect x="105" y="25" width="5" height="5" fill="#52525C"/>
<rect x="110" y="25" width="5" height="5" fill="#52525C"/>
<rect x="60" y="30" width="5" height="5" fill="#52525C"/>
<rect x="65" y="30" width="5" height="5" fill="#52525C"/>
<rect x="105" y="30" width="5" height="5" fill="#52525C"/>
<rect x="110" y="30" width="5" height="5" fill="#52525C"/>
<rect x="55" y="35" width="5" height="5" fill="#52525C"/>
<rect x="60" y="35" width="5" height="5" fill="#52525C"/>
<rect x="105" y="35" width="5" height="5" fill="#52525C"/>
<rect x="110" y="35" width="5" height="5" fill="#52525C"/>
<rect x="50" y="40" width="5" height="5" fill="#52525C"/>
<rect x="55" y="40" width="5" height="5" fill="#52525C"/>
<rect x="60" y="40" width="5" height="5" fill="#F5F5F6"/>
<rect x="75" y="40" width="5" height="5" fill="#52525C"/>
<rect x="80" y="40" width="5" height="5" fill="#52525C"/>
<rect x="105" y="40" width="5" height="5" fill="#52525C"/>
<rect x="110" y="40" width="5" height="5" fill="#52525C"/>
<rect x="30" y="45" width="5" height="5" fill="#595963"/>
<rect x="45" y="45" width="5" height="5" fill="#E1E1E3"/>
<rect x="50" y="45" width="5" height="5" fill="#52525C"/>
<rect x="55" y="45" width="5" height="5" fill="#6E6E76"/>
<rect x="70" y="45" width="5" height="5" fill="#52525C"/>
<rect x="75" y="45" width="5" height="5" fill="#52525C"/>
<rect x="80" y="45" width="5" height="5" fill="#52525C"/>
<rect x="100" y="45" width="5" height="5" fill="#C0C0C3"/>
<rect x="105" y="45" width="5" height="5" fill="#52525C"/>
<rect x="110" y="45" width="5" height="5" fill="#52525C"/>
<rect x="25" y="50" width="5" height="5" fill="#52525C"/>
<rect x="30" y="50" width="5" height="5" fill="#52525C"/>
<rect x="35" y="50" width="5" height="5" fill="#52525C"/>
<rect x="45" y="50" width="5" height="5" fill="#52525C"/>
<rect x="50" y="50" width="5" height="5" fill="#52525C"/>
<rect x="65" y="50" width="5" height="5" fill="#52525C"/>
<rect x="70" y="50" width="5" height="5" fill="#52525C"/>
<rect x="75" y="50" width="5" height="5" fill="#52525C"/>
<rect x="95" y="50" width="5" height="5" fill="#52525C"/>
<rect x="100" y="50" width="5" height="5" fill="#52525C"/>
<rect x="105" y="50" width="5" height="5" fill="#52525C"/>
<rect x="20" y="55" width="5" height="5" fill="#52525C"/>
<rect x="25" y="55" width="5" height="5" fill="#52525C"/>
<rect x="30" y="55" width="5" height="5" fill="#D8D8DA"/>
<rect x="35" y="55" width="5" height="5" fill="#52525C"/>
<rect x="40" y="55" width="5" height="5" fill="#52525C"/>
<rect x="45" y="55" width="5" height="5" fill="#52525C"/>
<rect x="60" y="55" width="5" height="5" fill="#52525C"/>
<rect x="65" y="55" width="5" height="5" fill="#52525C"/>
<rect x="70" y="55" width="5" height="5" fill="#52525C"/>
<rect x="90" y="55" width="5" height="5" fill="#52525C"/>
<rect x="95" y="55" width="5" height="5" fill="#52525C"/>
<rect x="100" y="55" width="5" height="5" fill="#5A5A64"/>
<rect x="20" y="60" width="5" height="5" fill="#52525C"/>
<rect x="25" y="60" width="5" height="5" fill="#ABABB0"/>
<rect x="30" y="60" width="5" height="5" fill="#D8D8DA"/>
<rect x="35" y="60" width="5" height="5" fill="#D8D8DA"/>
<rect x="40" y="60" width="5" height="5" fill="#52525C"/>
<rect x="45" y="60" width="5" height="5" fill="#52525C"/>
<rect x="55" y="60" width="5" height="5" fill="#52525C"/>
<rect x="60" y="60" width="5" height="5" fill="#52525C"/>
<rect x="65" y="60" width="5" height="5" fill="#52525C"/>
<rect x="80" y="60" width="5" height="5" fill="#F5F5F6"/>
<rect x="85" y="60" width="5" height="5" fill="#52525C"/>
<rect x="90" y="60" width="5" height="5" fill="#52525C"/>
<rect x="20" y="65" width="5" height="5" fill="#52525C"/>
<rect x="25" y="65" width="5" height="5" fill="#52525C"/>
<rect x="30" y="65" width="5" height="5" fill="#ABABB0"/>
<rect x="35" y="65" width="5" height="5" fill="#D8D8DA"/>
<rect x="40" y="65" width="5" height="5" fill="#D8D8DA"/>
<rect x="45" y="65" width="5" height="5" fill="#52525C"/>
<rect x="50" y="65" width="5" height="5" fill="#52525C"/>
<rect x="55" y="65" width="5" height="5" fill="#52525C"/>
<rect x="60" y="65" width="5" height="5" fill="#52525C"/>
<rect x="75" y="65" width="5" height="5" fill="#6E6E76"/>
<rect x="80" y="65" width="5" height="5" fill="#52525C"/>
<rect x="85" y="65" width="5" height="5" fill="#52525C"/>
<rect x="25" y="70" width="5" height="5" fill="#52525C"/>
<rect x="30" y="70" width="5" height="5" fill="#52525C"/>
<rect x="35" y="70" width="5" height="5" fill="#ABABB0"/>
<rect x="40" y="70" width="5" height="5" fill="#D8D8DA"/>
<rect x="45" y="70" width="5" height="5" fill="#D8D8DA"/>
<rect x="50" y="70" width="5" height="5" fill="#52525C"/>
<rect x="55" y="70" width="5" height="5" fill="#52525C"/>
<rect x="70" y="70" width="5" height="5" fill="#52525C"/>
<rect x="75" y="70" width="5" height="5" fill="#52525C"/>
<rect x="80" y="70" width="5" height="5" fill="#52525C"/>
<rect x="30" y="75" width="5" height="5" fill="#52525C"/>
<rect x="35" y="75" width="5" height="5" fill="#52525C"/>
<rect x="40" y="75" width="5" height="5" fill="#ABABB0"/>
<rect x="45" y="75" width="5" height="5" fill="#D8D8DA"/>
<rect x="50" y="75" width="5" height="5" fill="#D8D8DA"/>
<rect x="55" y="75" width="5" height="5" fill="#52525C"/>
<rect x="60" y="75" width="5" height="5" fill="#52525C"/>
<rect x="65" y="75" width="5" height="5" fill="#52525C"/>
<rect x="70" y="75" width="5" height="5" fill="#52525C"/>
<rect x="75" y="75" width="5" height="5" fill="#E1E1E3"/>
<rect x="25" y="80" width="5" height="5" fill="#52525C"/>
<rect x="30" y="80" width="5" height="5" fill="#52525C"/>
<rect x="35" y="80" width="5" height="5" fill="#52525C"/>
<rect x="40" y="80" width="5" height="5" fill="#52525C"/>
<rect x="45" y="80" width="5" height="5" fill="#ABABB0"/>
<rect x="50" y="80" width="5" height="5" fill="#D8D8DA"/>
<rect x="55" y="80" width="5" height="5" fill="#D8D8DA"/>
<rect x="60" y="80" width="5" height="5" fill="#52525C"/>
<rect x="65" y="80" width="5" height="5" fill="#52525C"/>
<rect x="20" y="85" width="5" height="5" fill="#52525C"/>
<rect x="25" y="85" width="5" height="5" fill="#52525C"/>
<rect x="30" y="85" width="5" height="5" fill="#D8D8DA"/>
<rect x="35" y="85" width="5" height="5" fill="#D8D8DA"/>
<rect x="40" y="85" width="5" height="5" fill="#52525C"/>
<rect x="45" y="85" width="5" height="5" fill="#52525C"/>
<rect x="50" y="85" width="5" height="5" fill="#ABABB0"/>
<rect x="55" y="85" width="5" height="5" fill="#D8D8DA"/>
<rect x="60" y="85" width="5" height="5" fill="#D8D8DA"/>
<rect x="65" y="85" width="5" height="5" fill="#52525C"/>
<rect x="70" y="85" width="5" height="5" fill="#52525C"/>
<rect x="15" y="90" width="5" height="5" fill="#52525C"/>
<rect x="20" y="90" width="5" height="5" fill="#52525C"/>
<rect x="25" y="90" width="5" height="5" fill="#D8D8DA"/>
<rect x="30" y="90" width="5" height="5" fill="#D8D8DA"/>
<rect x="35" y="90" width="5" height="5" fill="#D8D8DA"/>
<rect x="40" y="90" width="5" height="5" fill="#52525C"/>
<rect x="45" y="90" width="5" height="5" fill="#52525C"/>
<rect x="50" y="90" width="5" height="5" fill="#52525C"/>
<rect x="55" y="90" width="5" height="5" fill="#ABABB0"/>
<rect x="60" y="90" width="5" height="5" fill="#D8D8DA"/>
<rect x="65" y="90" width="5" height="5" fill="#D8D8DA"/>
<rect x="70" y="90" width="5" height="5" fill="#52525C"/>
<rect x="75" y="90" width="5" height="5" fill="#585862"/>
<rect x="15" y="95" width="5" height="5" fill="#52525C"/>
<rect x="20" y="95" width="5" height="5" fill="#7F7F86"/>
<rect x="25" y="95" width="5" height="5" fill="#D8D8DA"/>
<rect x="30" y="95" width="5" height="5" fill="#D8D8DA"/>
<rect x="35" y="95" width="5" height="5" fill="#52525C"/>
<rect x="40" y="95" width="5" height="5" fill="#52525C"/>
<rect x="50" y="95" width="5" height="5" fill="#52525C"/>
<rect x="55" y="95" width="5" height="5" fill="#52525C"/>
<rect x="60" y="95" width="5" height="5" fill="#ABABB0"/>
<rect x="65" y="95" width="5" height="5" fill="#52525C"/>
<rect x="70" y="95" width="5" height="5" fill="#52525C"/>
<rect x="15" y="100" width="5" height="5" fill="#52525C"/>
<rect x="20" y="100" width="5" height="5" fill="#52525C"/>
<rect x="25" y="100" width="5" height="5" fill="#7F7F86"/>
<rect x="30" y="100" width="5" height="5" fill="#52525C"/>
<rect x="35" y="100" width="5" height="5" fill="#52525C"/>
<rect x="55" y="100" width="5" height="5" fill="#52525C"/>
<rect x="60" y="100" width="5" height="5" fill="#52525C"/>
<rect x="65" y="100" width="5" height="5" fill="#52525C"/>
<rect x="20" y="105" width="5" height="5" fill="#52525C"/>
<rect x="25" y="105" width="5" height="5" fill="#52525C"/>
<rect x="30" y="105" width="5" height="5" fill="#52525C"/>
</svg>
